<svg xmlns="http://www.w3.org/2000/svg" viewBox="0 0 64 64" fill="none">
  <defs>
    <radialGradient id="bodyGrad" cx="0.4" cy="0.3">
      <stop offset="0%" stop-color="#f87171" stop-opacity="0.6"/>
      <stop offset="100%" stop-color="#ef4444" stop-opacity="0"/>
    </radialGradient>
  </defs>
  <!-- Body -->
  <ellipse cx="32" cy="38" rx="12" ry="10" fill="#ef4444"/>
  <ellipse cx="32" cy="38" rx="12" ry="10" fill="url(#bodyGrad)"/>
  <!-- Tail segments -->
  <ellipse cx="32" cy="50" rx="9" ry="5" fill="#dc2626"/>
  <ellipse cx="32" cy="55" rx="7" ry="4" fill="#b91c1c"/>
  <path d="M25 57 Q32 64 39 57" stroke="#991b1b" stroke-width="2" fill="#991b1b" opacity="0.8"/>
  <!-- Head -->
  <ellipse cx="32" cy="28" rx="8" ry="7" fill="#ef4444"/>
  <!-- Eyes -->
  <circle cx="28" cy="26" r="2.5" fill="white"/>
  <circle cx="36" cy="26" r="2.5" fill="white"/>
  <circle cx="28.5" cy="26" r="1.2" fill="#1e293b"/>
  <circle cx="36.5" cy="26" r="1.2" fill="#1e293b"/>
  <!-- Antennae -->
  <path d="M28 22 Q22 12 16 8" stroke="#ef4444" stroke-width="2.5" stroke-linecap="round" fill="none"/>
  <path d="M36 22 Q42 12 48 8" stroke="#ef4444" stroke-width="2.5" stroke-linecap="round" fill="none"/>
  <circle cx="16" cy="8" r="2" fill="#f97316"/>
  <circle cx="48" cy="8" r="2" fill="#f97316"/>
  <!-- Left claw -->
  <path d="M20 36 Q14 32 10 28" stroke="#ef4444" stroke-width="3" stroke-linecap="round" fill="none"/>
  <path d="M10 28 Q6 24 4 20" stroke="#dc2626" stroke-width="2.5" stroke-linecap="round" fill="none"/>
  <path d="M10 28 Q8 32 6 28" stroke="#dc2626" stroke-width="2.5" stroke-linecap="round" fill="none"/>
  <!-- Right claw -->
  <path d="M44 36 Q50 32 54 28" stroke="#ef4444" stroke-width="3" stroke-linecap="round" fill="none"/>
  <path d="M54 28 Q58 24 60 20" stroke="#dc2626" stroke-width="2.5" stroke-linecap="round" fill="none"/>
  <path d="M54 28 Q56 32 58 28" stroke="#dc2626" stroke-width="2.5" stroke-linecap="round" fill="none"/>
  <!-- Legs -->
  <path d="M22 42 Q16 44 12 46" stroke="#dc2626" stroke-width="2" stroke-linecap="round" fill="none"/>
  <path d="M22 46 Q16 48 12 50" stroke="#dc2626" stroke-width="2" stroke-linecap="round" fill="none"/>
  <path d="M42 42 Q48 44 52 46" stroke="#dc2626" stroke-width="2" stroke-linecap="round" fill="none"/>
  <path d="M42 46 Q48 48 52 50" stroke="#dc2626" stroke-width="2" stroke-linecap="round" fill="none"/>
</svg>
