<svg xmlns="http://www.w3.org/2000/svg" viewBox="0 0 64 64" fill="none">
  <defs>
    <linearGradient id="lobsterRed" x1="16" y1="10" x2="46" y2="58" gradientUnits="userSpaceOnUse">
      <stop offset="0" stop-color="#fb7185"/>
      <stop offset="0.52" stop-color="#ef4444"/>
      <stop offset="1" stop-color="#991b1b"/>
    </linearGradient>
    <linearGradient id="lobsterOrange" x1="6" y1="12" x2="58" y2="30" gradientUnits="userSpaceOnUse">
      <stop offset="0" stop-color="#fdba74"/>
      <stop offset="1" stop-color="#f97316"/>
    </linearGradient>
  </defs>

  <!-- Antennae -->
  <path d="M28 17C24 10 18 5 10 2" stroke="#fb923c" stroke-width="2.4" stroke-linecap="round"/>
  <path d="M36 17C40 10 46 5 54 2" stroke="#fb923c" stroke-width="2.4" stroke-linecap="round"/>
  <path d="M30 18C28 9 25 4 21 1" stroke="#fdba74" stroke-width="1.8" stroke-linecap="round"/>
  <path d="M34 18C36 9 39 4 43 1" stroke="#fdba74" stroke-width="1.8" stroke-linecap="round"/>

  <!-- Claws -->
  <path d="M21 27C13 26 8 22 4 15C9 13 15 13 20 16C17 11 17 6 19 2C27 6 31 14 31 21" fill="url(#lobsterOrange)"/>
  <path d="M43 27C51 26 56 22 60 15C55 13 49 13 44 16C47 11 47 6 45 2C37 6 33 14 33 21" fill="url(#lobsterOrange)"/>
  <path d="M24 24L16 19" stroke="#dc2626" stroke-width="2.7" stroke-linecap="round"/>
  <path d="M40 24L48 19" stroke="#dc2626" stroke-width="2.7" stroke-linecap="round"/>

  <!-- Head and thorax -->
  <path d="M32 16C24.5 16 20 23 20 30C20 36 24 40 32 40C40 40 44 36 44 30C44 23 39.5 16 32 16Z" fill="url(#lobsterRed)"/>
  <path d="M26 21C27.8 19 29.8 18 32 18C34.2 18 36.2 19 38 21" stroke="#fecaca" stroke-width="1.8" stroke-linecap="round"/>

  <!-- Eyes -->
  <circle cx="28" cy="24.5" r="2.3" fill="#fff7ed"/>
  <circle cx="36" cy="24.5" r="2.3" fill="#fff7ed"/>
  <circle cx="28.5" cy="24.7" r="1.05" fill="#111827"/>
  <circle cx="36.5" cy="24.7" r="1.05" fill="#111827"/>

  <!-- Segmented tail -->
  <ellipse cx="32" cy="42" rx="8.5" ry="5.8" fill="#dc2626"/>
  <ellipse cx="32" cy="49" rx="7" ry="4.8" fill="#b91c1c"/>
  <ellipse cx="32" cy="55" rx="5.5" ry="3.8" fill="#991b1b"/>
  <path d="M27 58C29 61 30.5 62 32 62C33.5 62 35 61 37 58" stroke="#7f1d1d" stroke-width="2.2" stroke-linecap="round"/>

  <!-- Legs -->
  <path d="M23 35L15 39" stroke="#dc2626" stroke-width="2" stroke-linecap="round"/>
  <path d="M24 40L15 45" stroke="#dc2626" stroke-width="2" stroke-linecap="round"/>
  <path d="M25 45L17 50" stroke="#dc2626" stroke-width="2" stroke-linecap="round"/>
  <path d="M41 35L49 39" stroke="#dc2626" stroke-width="2" stroke-linecap="round"/>
  <path d="M40 40L49 45" stroke="#dc2626" stroke-width="2" stroke-linecap="round"/>
  <path d="M39 45L47 50" stroke="#dc2626" stroke-width="2" stroke-linecap="round"/>
</svg>
